<svg xmlns="http://www.w3.org/2000/svg" viewBox="0 0 1560 600" width="1560" height="600" font-family="Poppins, system-ui, -apple-system, 'Segoe UI', Roboto, sans-serif">
<title>Le tre fasi di addestramento: pretraining, RLHF e RL agentico, concatenate</title>
<g id="input-flows">
<rect x="13" y="56" width="196" height="56" rx="8" fill="#ffffff" stroke="#dee2e6"/>
<text x="111" y="90" font-size="17" font-weight="500" fill="#212529" text-anchor="middle">testo di internet</text>
<polygon points="15,116 207,116 124,284 98,284" fill="#f6f6f6"/>
<polygon points="102,282 120,282 111,298" fill="#838383"/>
<rect x="553" y="56" width="196" height="56" rx="8" fill="#ffffff" stroke="#dee2e6"/>
<text x="651" y="90" font-size="17" font-weight="500" fill="#212529" text-anchor="middle">preferenze umane</text>
<polygon points="555,116 747,116 664,284 638,284" fill="#f6f6f6"/>
<polygon points="642,282 660,282 651,298" fill="#838383"/>
<rect x="1093" y="56" width="196" height="56" rx="8" fill="#ffffff" stroke="#dee2e6"/>
<text x="1191" y="90" font-size="17" font-weight="500" fill="#212529" text-anchor="middle">task e tool</text>
<polygon points="1095,116 1287,116 1204,284 1178,284" fill="#f6f6f6"/>
<polygon points="1182,282 1200,282 1191,298" fill="#838383"/>
</g>
<g id="stadi">
<polygon points="18,300 176,300 204,365 176,430 18,430 46,365" fill="#f6f6f6" stroke="#dee2e6"/>
<text x="119" y="352" font-size="13" font-weight="600" letter-spacing="1.6" fill="#838383" text-anchor="middle">FASE 1</text>
<text x="119" y="382" font-size="21" font-weight="700" fill="#161719" text-anchor="middle">Pretraining</text>
<polygon points="558,300 716,300 744,365 716,430 558,430 586,365" fill="#f6f6f6" stroke="#dee2e6"/>
<text x="659" y="352" font-size="13" font-weight="600" letter-spacing="1.6" fill="#838383" text-anchor="middle">FASE 2</text>
<text x="659" y="382" font-size="21" font-weight="700" fill="#161719" text-anchor="middle">RLHF</text>
<polygon points="1098,300 1256,300 1284,365 1256,430 1098,430 1126,365" fill="#f6f6f6" stroke="#dee2e6"/>
<text x="1199" y="352" font-size="13" font-weight="600" letter-spacing="1.6" fill="#838383" text-anchor="middle">FASE 3</text>
<text x="1199" y="382" font-size="21" font-weight="700" fill="#161719" text-anchor="middle">RL agentico</text>
</g>
<g id="modelli">
<rect x="238" y="250" width="224" height="230" rx="8" fill="#ffffff" stroke="#dee2e6"/>
<rect x="238" y="262" width="3" height="206" fill="#a1245a"/>
<text x="260" y="280" font-size="13" font-weight="600" letter-spacing="1.6" fill="#838383">MODELLO</text>
<line x1="276" y1="312" x2="328" y2="300" stroke="#838383" stroke-width="1.4"/><line x1="276" y1="312" x2="328" y2="330" stroke="#838383" stroke-width="1.4"/><line x1="276" y1="348" x2="328" y2="330" stroke="#838383" stroke-width="1.4"/><line x1="276" y1="348" x2="328" y2="360" stroke="#838383" stroke-width="1.4"/><line x1="276" y1="384" x2="328" y2="360" stroke="#838383" stroke-width="1.4"/><line x1="276" y1="384" x2="328" y2="390" stroke="#838383" stroke-width="1.4"/><line x1="276" y1="312" x2="328" y2="360" stroke="#dee2e6" stroke-width="1"/><line x1="276" y1="348" x2="328" y2="300" stroke="#dee2e6" stroke-width="1"/><line x1="276" y1="348" x2="328" y2="390" stroke="#dee2e6" stroke-width="1"/><line x1="276" y1="384" x2="328" y2="330" stroke="#dee2e6" stroke-width="1"/><line x1="276" y1="312" x2="328" y2="390" stroke="#dee2e6" stroke-width="1"/><line x1="276" y1="384" x2="328" y2="300" stroke="#dee2e6" stroke-width="1"/><line x1="328" y1="300" x2="380" y2="300" stroke="#838383" stroke-width="1.4"/><line x1="328" y1="330" x2="380" y2="330" stroke="#838383" stroke-width="1.4"/><line x1="328" y1="360" x2="380" y2="360" stroke="#838383" stroke-width="1.4"/><line x1="328" y1="390" x2="380" y2="390" stroke="#838383" stroke-width="1.4"/><line x1="328" y1="300" x2="380" y2="330" stroke="#dee2e6" stroke-width="1"/><line x1="328" y1="330" x2="380" y2="360" stroke="#dee2e6" stroke-width="1"/><line x1="328" y1="360" x2="380" y2="390" stroke="#dee2e6" stroke-width="1"/><line x1="328" y1="390" x2="380" y2="360" stroke="#dee2e6" stroke-width="1"/><line x1="328" y1="330" x2="380" y2="300" stroke="#dee2e6" stroke-width="1"/><line x1="328" y1="360" x2="380" y2="330" stroke="#dee2e6" stroke-width="1"/><line x1="328" y1="300" x2="380" y2="360" stroke="#dee2e6" stroke-width="1"/><line x1="328" y1="390" x2="380" y2="330" stroke="#dee2e6" stroke-width="1"/><line x1="380" y1="300" x2="432" y2="324" stroke="#dee2e6" stroke-width="1"/><line x1="380" y1="330" x2="432" y2="324" stroke="#dee2e6" stroke-width="1"/><line x1="380" y1="360" x2="432" y2="366" stroke="#dee2e6" stroke-width="1"/><line x1="380" y1="390" x2="432" y2="366" stroke="#dee2e6" stroke-width="1"/><line x1="380" y1="330" x2="432" y2="366" stroke="#dee2e6" stroke-width="1"/><line x1="380" y1="360" x2="432" y2="324" stroke="#dee2e6" stroke-width="1"/><circle cx="276" cy="312" r="4.5" fill="#161719"/><circle cx="276" cy="348" r="4.5" fill="#161719"/><circle cx="276" cy="384" r="4.5" fill="#161719"/><circle cx="328" cy="300" r="4.5" fill="#161719"/><circle cx="328" cy="330" r="4.5" fill="#161719"/><circle cx="328" cy="360" r="4.5" fill="#161719"/><circle cx="328" cy="390" r="4.5" fill="#161719"/><circle cx="380" cy="300" r="4.5" fill="#161719"/><circle cx="380" cy="330" r="4.5" fill="#161719"/><circle cx="380" cy="360" r="4.5" fill="#161719"/><circle cx="380" cy="390" r="4.5" fill="#161719"/><circle cx="432" cy="324" r="4.5" fill="#ffffff" stroke="#dee2e6"/><circle cx="432" cy="366" r="4.5" fill="#ffffff" stroke="#dee2e6"/>
<text x="260" y="428" font-size="17" font-weight="600" fill="#a1245a">il completatore</text>
<text x="260" y="450" font-size="13" font-weight="400" fill="#838383">(modello linguistico puro)</text>
<rect x="778" y="250" width="224" height="230" rx="8" fill="#ffffff" stroke="#dee2e6"/>
<rect x="778" y="262" width="3" height="206" fill="#a1245a"/>
<text x="800" y="280" font-size="13" font-weight="600" letter-spacing="1.6" fill="#838383">MODELLO</text>
<line x1="816" y1="312" x2="868" y2="300" stroke="#838383" stroke-width="1.4"/><line x1="816" y1="312" x2="868" y2="330" stroke="#838383" stroke-width="1.4"/><line x1="816" y1="348" x2="868" y2="330" stroke="#838383" stroke-width="1.4"/><line x1="816" y1="348" x2="868" y2="360" stroke="#838383" stroke-width="1.4"/><line x1="816" y1="384" x2="868" y2="360" stroke="#838383" stroke-width="1.4"/><line x1="816" y1="384" x2="868" y2="390" stroke="#838383" stroke-width="1.4"/><line x1="816" y1="312" x2="868" y2="360" stroke="#838383" stroke-width="1.4"/><line x1="816" y1="348" x2="868" y2="300" stroke="#838383" stroke-width="1.4"/><line x1="816" y1="348" x2="868" y2="390" stroke="#838383" stroke-width="1.4"/><line x1="816" y1="384" x2="868" y2="330" stroke="#838383" stroke-width="1.4"/><line x1="816" y1="312" x2="868" y2="390" stroke="#dee2e6" stroke-width="1"/><line x1="816" y1="384" x2="868" y2="300" stroke="#dee2e6" stroke-width="1"/><line x1="868" y1="300" x2="920" y2="300" stroke="#838383" stroke-width="1.4"/><line x1="868" y1="330" x2="920" y2="330" stroke="#838383" stroke-width="1.4"/><line x1="868" y1="360" x2="920" y2="360" stroke="#838383" stroke-width="1.4"/><line x1="868" y1="390" x2="920" y2="390" stroke="#838383" stroke-width="1.4"/><line x1="868" y1="300" x2="920" y2="330" stroke="#838383" stroke-width="1.4"/><line x1="868" y1="330" x2="920" y2="360" stroke="#838383" stroke-width="1.4"/><line x1="868" y1="360" x2="920" y2="390" stroke="#838383" stroke-width="1.4"/><line x1="868" y1="390" x2="920" y2="360" stroke="#838383" stroke-width="1.4"/><line x1="868" y1="330" x2="920" y2="300" stroke="#dee2e6" stroke-width="1"/><line x1="868" y1="360" x2="920" y2="330" stroke="#dee2e6" stroke-width="1"/><line x1="868" y1="300" x2="920" y2="360" stroke="#dee2e6" stroke-width="1"/><line x1="868" y1="390" x2="920" y2="330" stroke="#dee2e6" stroke-width="1"/><line x1="920" y1="300" x2="972" y2="324" stroke="#838383" stroke-width="1.4"/><line x1="920" y1="330" x2="972" y2="324" stroke="#838383" stroke-width="1.4"/><line x1="920" y1="360" x2="972" y2="366" stroke="#dee2e6" stroke-width="1"/><line x1="920" y1="390" x2="972" y2="366" stroke="#dee2e6" stroke-width="1"/><line x1="920" y1="330" x2="972" y2="366" stroke="#dee2e6" stroke-width="1"/><line x1="920" y1="360" x2="972" y2="324" stroke="#dee2e6" stroke-width="1"/><circle cx="816" cy="312" r="4.5" fill="#161719"/><circle cx="816" cy="348" r="4.5" fill="#161719"/><circle cx="816" cy="384" r="4.5" fill="#161719"/><circle cx="868" cy="300" r="4.5" fill="#161719"/><circle cx="868" cy="330" r="4.5" fill="#161719"/><circle cx="868" cy="360" r="4.5" fill="#161719"/><circle cx="868" cy="390" r="4.5" fill="#161719"/><circle cx="920" cy="300" r="4.5" fill="#161719"/><circle cx="920" cy="330" r="4.5" fill="#161719"/><circle cx="920" cy="360" r="4.5" fill="#161719"/><circle cx="920" cy="390" r="4.5" fill="#161719"/><circle cx="972" cy="324" r="4.5" fill="#161719"/><circle cx="972" cy="366" r="4.5" fill="#161719"/>
<text x="800" y="428" font-size="17" font-weight="600" fill="#a1245a">il conversatore</text>
<rect x="1318" y="250" width="224" height="230" rx="8" fill="#ffffff" stroke="#dee2e6"/>
<rect x="1318" y="262" width="3" height="206" fill="#a1245a"/>
<text x="1340" y="280" font-size="13" font-weight="600" letter-spacing="1.6" fill="#838383">MODELLO</text>
<line x1="1356" y1="312" x2="1408" y2="300" stroke="#838383" stroke-width="1.4"/><line x1="1356" y1="312" x2="1408" y2="330" stroke="#838383" stroke-width="1.4"/><line x1="1356" y1="348" x2="1408" y2="330" stroke="#838383" stroke-width="1.4"/><line x1="1356" y1="348" x2="1408" y2="360" stroke="#838383" stroke-width="1.4"/><line x1="1356" y1="384" x2="1408" y2="360" stroke="#838383" stroke-width="1.4"/><line x1="1356" y1="384" x2="1408" y2="390" stroke="#838383" stroke-width="1.4"/><line x1="1356" y1="312" x2="1408" y2="360" stroke="#838383" stroke-width="1.4"/><line x1="1356" y1="348" x2="1408" y2="300" stroke="#838383" stroke-width="1.4"/><line x1="1356" y1="348" x2="1408" y2="390" stroke="#838383" stroke-width="1.4"/><line x1="1356" y1="384" x2="1408" y2="330" stroke="#838383" stroke-width="1.4"/><line x1="1356" y1="312" x2="1408" y2="390" stroke="#838383" stroke-width="1.4"/><line x1="1356" y1="384" x2="1408" y2="300" stroke="#838383" stroke-width="1.4"/><line x1="1408" y1="300" x2="1460" y2="300" stroke="#838383" stroke-width="1.4"/><line x1="1408" y1="330" x2="1460" y2="330" stroke="#838383" stroke-width="1.4"/><line x1="1408" y1="360" x2="1460" y2="360" stroke="#838383" stroke-width="1.4"/><line x1="1408" y1="390" x2="1460" y2="390" stroke="#838383" stroke-width="1.4"/><line x1="1408" y1="300" x2="1460" y2="330" stroke="#838383" stroke-width="1.4"/><line x1="1408" y1="330" x2="1460" y2="360" stroke="#838383" stroke-width="1.4"/><line x1="1408" y1="360" x2="1460" y2="390" stroke="#838383" stroke-width="1.4"/><line x1="1408" y1="390" x2="1460" y2="360" stroke="#838383" stroke-width="1.4"/><line x1="1408" y1="330" x2="1460" y2="300" stroke="#838383" stroke-width="1.4"/><line x1="1408" y1="360" x2="1460" y2="330" stroke="#838383" stroke-width="1.4"/><line x1="1408" y1="300" x2="1460" y2="360" stroke="#838383" stroke-width="1.4"/><line x1="1408" y1="390" x2="1460" y2="330" stroke="#838383" stroke-width="1.4"/><line x1="1460" y1="300" x2="1512" y2="324" stroke="#838383" stroke-width="1.4"/><line x1="1460" y1="330" x2="1512" y2="324" stroke="#838383" stroke-width="1.4"/><line x1="1460" y1="360" x2="1512" y2="366" stroke="#838383" stroke-width="1.4"/><line x1="1460" y1="390" x2="1512" y2="366" stroke="#838383" stroke-width="1.4"/><line x1="1460" y1="330" x2="1512" y2="366" stroke="#838383" stroke-width="1.4"/><line x1="1460" y1="360" x2="1512" y2="324" stroke="#838383" stroke-width="1.4"/><circle cx="1356" cy="312" r="4.5" fill="#161719"/><circle cx="1356" cy="348" r="4.5" fill="#161719"/><circle cx="1356" cy="384" r="4.5" fill="#161719"/><circle cx="1408" cy="300" r="4.5" fill="#161719"/><circle cx="1408" cy="330" r="4.5" fill="#161719"/><circle cx="1408" cy="360" r="4.5" fill="#161719"/><circle cx="1408" cy="390" r="4.5" fill="#161719"/><circle cx="1460" cy="300" r="4.5" fill="#161719"/><circle cx="1460" cy="330" r="4.5" fill="#161719"/><circle cx="1460" cy="360" r="4.5" fill="#161719"/><circle cx="1460" cy="390" r="4.5" fill="#161719"/><circle cx="1512" cy="324" r="4.5" fill="#161719"/><circle cx="1512" cy="366" r="4.5" fill="#161719"/>
<text x="1340" y="428" font-size="17" font-weight="600" fill="#a1245a">il modello che sa</text>
<text x="1340" y="450" font-size="17" font-weight="600" fill="#a1245a">usare i tool</text>
</g>
<g id="frecce">
<line x1="208" y1="365" x2="225" y2="365" stroke="#838383" stroke-width="2"/>
<polygon points="224,359 224,371 234,365" fill="#838383"/>
<line x1="748" y1="365" x2="765" y2="365" stroke="#838383" stroke-width="2"/>
<polygon points="764,359 764,371 774,365" fill="#838383"/>
<line x1="1288" y1="365" x2="1305" y2="365" stroke="#838383" stroke-width="2"/>
<polygon points="1304,359 1304,371 1314,365" fill="#838383"/>
<line x1="466" y1="365" x2="542" y2="365" stroke="#a1245a" stroke-width="3"/>
<polygon points="541,357 541,373 554,365" fill="#a1245a"/>
<line x1="1006" y1="365" x2="1082" y2="365" stroke="#a1245a" stroke-width="3"/>
<polygon points="1081,357 1081,373 1094,365" fill="#a1245a"/>
<text x="510" y="344" font-size="13" font-weight="600" fill="#a1245a" text-anchor="middle">si parte da qui</text>
</g>
<text x="780" y="552" font-size="17" font-weight="500" fill="#838383" text-anchor="middle">la stessa rete, trasformata tre volte: mai ricostruita da zero</text>
</svg>